<?xml version="1.0" encoding="UTF-8"?>
<svg id="Capa_2" data-name="Capa 2" xmlns="http://www.w3.org/2000/svg" viewBox="0 0 327.78 327.78">
  <defs>
    <style>
      .cls-1 {
        fill: #00c2d1;
      }
    </style>
  </defs>
  <g id="Capa_1-2" data-name="Capa 1">
    <g>
      <path class="cls-1" d="M279.2,216.75c-.59-.21-1.24.1-1.45.69s.1,1.24.69,1.45c.59.21,1.24-.1,1.45-.69.21-.59-.1-1.24-.69-1.45Z"/>
      <path class="cls-1" d="M280.6,213.41c-.44,2.24-.05,4.36.89,6.43,1.26,2.76,5.47,8.55,9.91,11.29,2.96-.83,6.13-2.71,8.64-4.58-1.12-.06-2.14-1.42-2.48-1.92-.04-.06-.08-.12-.12-.18h0c-.28.08-.53.14-.75.18-1.06.2-1.91.19-2.54-.04-.26-.09-.48-.22-.66-.38-.01-.01-.03-.03-.04-.04-.2-.16-.36-.4-.43-.71-.13-.59-.12-1.22-.08-1.83.07-.88.24-2.09.41-2.95.04-.21.06-.41.08-.62-.5.8-1.19,1.87-1.71,2.66-.31.48-.65.94-1.01,1.37-.18.21-.43.39-.68.51-.66.32-1.43.06-1.67-.63-.16-.45-.23-.96-.2-1.44.08-1.12.36-2.53.5-3.65.02-.18.04-.34.01-.56-.37.59-.89,1.45-1.27,2.03-.4.62-.8,1.25-1.24,1.84-.2.27-.48.5-.77.67-.68.41-1.51.14-1.78-.61-.15-.42-.22-.89-.19-1.34.07-1.02.34-2.33.46-3.35.03-.29.06-.59.02-.92-.1.13-.21.25-.29.38-.26.4-.61,1.1-.87,1.51-.25.4-.72.52-1.09.3-.39-.23-.5-.69-.24-1.1.41-.64.93-1.58,1.38-2.19.18-.25.45-.46.71-.62.73-.44,1.57-.16,1.84.64.14.42.19.9.16,1.34-.08,1.02-.34,2.33-.47,3.35-.03.28-.05.56,0,.88.25-.38.5-.75.74-1.13.49-.76,1.06-1.82,1.57-2.56.21-.3.5-.57.8-.78.77-.53,1.72-.21,1.95.69.13.52.15,1.08.1,1.62-.09,1.04-.36,2.37-.49,3.41-.02.13-.02.26-.02.39.03.01.06.02.09.03.33-.52.66-1.05,1-1.57.41-.64.92-1.58,1.37-2.2.2-.27.46-.51.74-.7.79-.52,1.69-.21,1.95.71.11.4.16.84.12,1.25-.1,1.12-.37,2.53-.5,3.65-.01.09-.02.18,0,.28,0,0,.02.87.43.99.34.05.85.04,1.52-.08.1-.02.21-.04.34-.08-.33-.89-.44-1.64-.26-2.43.24-1.07.75-1.89,1.44-2.32.49-.3,1.03-.39,1.57-.26.07.02.13.04.19.07.73.4,1.81,1.45.82,3.89-.32.79-.86,1.34-1.68,1.83.18.27.4.55.66.85h0s0,0,0,.01c.01.01.02.03.03.04.09.1.19.18.29.24.29.21.73.47,1.22.49.19,0,.37-.05.52-.15,0,0,0,0,0,0,0,0,0,0,0,0,1.04-.87,1.88-1.68,2.43-2.33h0c1.48-1.73,2.43-3.67,2.62-5.94.17-1.97-.56-4-1.94-5.43s-3.39-2.21-5.37-2.1c-2.11.11-4.13,1.27-5.33,3-.68-2-2.31-3.67-4.31-4.36-1.87-.65-4.02-.45-5.74.54-1.71.98-2.97,2.74-3.35,4.68Z"/>
      <path class="cls-1" d="M299.08,219.51c-.11,0-.22.02-.34.09-.33.21-.62.72-.77,1.38-.05.23-.09.71.19,1.53.42-.27.77-.54.97-1.05.55-1.36.19-1.78-.06-1.95Z"/>
      <path class="cls-1" d="M17.53,123.25c-.59-.21-1.24.1-1.45.69s.1,1.24.69,1.45,1.24-.1,1.45-.69c.21-.59-.1-1.24-.69-1.45Z"/>
      <path class="cls-1" d="M35.89,131.14c-.04-.06-.08-.12-.12-.18h0c-.28.08-.53.14-.75.18-1.06.2-1.91.19-2.54-.04-.26-.09-.48-.22-.66-.38-.01-.01-.03-.03-.04-.04-.2-.16-.36-.4-.43-.71-.13-.59-.12-1.22-.08-1.83.07-.88.24-2.09.41-2.94.04-.21.06-.41.08-.62-.5.8-1.19,1.87-1.71,2.66-.31.48-.65.94-1.01,1.37-.18.21-.43.39-.68.51-.66.32-1.43.06-1.67-.63-.16-.45-.23-.96-.2-1.44.08-1.12.36-2.53.5-3.65.02-.18.04-.34.01-.56-.37.59-.89,1.45-1.27,2.03-.4.62-.8,1.25-1.24,1.84-.2.27-.48.5-.77.67-.68.41-1.51.14-1.78-.61-.15-.42-.22-.89-.19-1.34.07-1.02.34-2.33.46-3.35.03-.29.06-.59.02-.92-.1.13-.21.25-.29.38-.26.4-.61,1.1-.87,1.51-.25.4-.72.52-1.09.3-.39-.23-.5-.69-.24-1.1.41-.64.93-1.58,1.38-2.19.18-.25.45-.46.71-.62.73-.44,1.57-.16,1.84.64.14.42.19.9.16,1.34-.08,1.02-.34,2.33-.47,3.35-.03.28-.05.56,0,.88.25-.38.5-.75.74-1.13.49-.76,1.06-1.82,1.57-2.56.21-.3.5-.57.8-.78.77-.53,1.72-.21,1.95.69.13.52.15,1.08.1,1.62-.09,1.04-.36,2.37-.49,3.41-.02.13-.02.26-.02.39.03.01.06.02.09.03.33-.52.66-1.05,1-1.57.41-.64.92-1.58,1.37-2.2.2-.27.46-.51.74-.7.79-.52,1.69-.21,1.95.71.11.4.16.84.12,1.25-.1,1.12-.37,2.53-.5,3.65-.01.09-.02.18,0,.28,0,0,.02.87.43.99.34.05.85.04,1.52-.08.1-.02.21-.04.34-.08-.33-.89-.44-1.65-.26-2.43.24-1.07.75-1.89,1.44-2.32.49-.3,1.03-.39,1.57-.26.07.02.13.04.19.07.73.4,1.81,1.45.82,3.89-.32.79-.86,1.34-1.68,1.83.18.27.4.55.66.85h0s0,0,0,.01c.01.01.02.03.03.04.09.1.19.18.29.24.29.21.73.47,1.22.49.19,0,.37-.05.52-.15,0,0,0,0,0,0,0,0,0,0,0,0,1.04-.87,1.88-1.68,2.43-2.33h0c1.48-1.73,2.43-3.67,2.62-5.94.17-1.97-.56-4-1.94-5.43-1.38-1.42-3.39-2.21-5.37-2.1-2.11.11-4.13,1.27-5.33,3-.68-2-2.31-3.67-4.31-4.36-1.87-.65-4.02-.45-5.74.54-1.71.98-2.97,2.74-3.35,4.68-.44,2.24-.05,4.36.89,6.43,1.26,2.76,5.47,8.55,9.91,11.29,2.96-.83,6.13-2.71,8.64-4.58-1.12-.06-2.14-1.42-2.48-1.92Z"/>
      <path class="cls-1" d="M37.4,126.02c-.11,0-.22.02-.34.09-.33.21-.62.72-.77,1.38-.05.23-.09.71.19,1.53.42-.27.77-.54.97-1.05.55-1.36.19-1.78-.06-1.95Z"/>
      <path class="cls-1" d="M318.21,219.03c30.4-85.09-14.09-179.06-99.18-209.46C133.93-20.84,39.97,23.66,9.57,108.75c-30.4,85.09,14.09,179.06,99.18,209.46,85.09,30.4,179.06-14.09,209.46-99.18ZM12.39,109.76C42.24,26.22,134.48-17.46,218.02,12.39c83.54,29.85,127.22,122.09,97.37,205.63-29.85,83.54-122.09,127.22-205.63,97.37C26.22,285.54-17.46,193.3,12.39,109.76Z"/>
      <path class="cls-1" d="M53.53,124.46c-21.74,60.85,10.08,128.05,70.93,149.79,60.85,21.74,128.05-10.08,149.79-70.93,21.74-60.85-10.08-128.05-70.93-149.79-60.85-21.74-128.05,10.08-149.79,70.93ZM202.31,56.36c59.29,21.19,90.3,86.66,69.11,145.95-21.19,59.29-86.66,90.3-145.95,69.11-59.29-21.19-90.3-86.66-69.11-145.95,21.19-59.29,86.66-90.3,145.95-69.11Z"/>
      <path d="M56.66,70.94l17.18,2.47,3.66-3.93-16.7-15.57-3.55,3.81,10.02,9.34-13.73-2.06c-1.1-.17-2.01-.15-2.72.04-.71.19-1.33.57-1.85,1.12-.7.75-1.02,1.59-.97,2.52.06.92.56,1.83,1.51,2.71l14.02,13.07,3.55-3.81-10.43-9.72Z"/>
      <path d="M72.6,53.61c-.19.56-.25,1.06-.17,1.5.08.43.24.82.5,1.16.36.48.8.75,1.31.8.51.05,1.03-.12,1.55-.51.37-.28.65-.6.82-.95.17-.35.33-.74.48-1.18.15-.43.37-.88.67-1.35.3-.46.76-.93,1.38-1.4.61-.46,1.17-.71,1.68-.76.51-.05.97.2,1.39.76l1.36,1.81-1.34-1.78c.23.3.3.61.2.9-.1.3-.41.73-.94,1.3l-2.41,2.49c-1.23,1.27-1.97,2.49-2.2,3.66-.24,1.17.06,2.31.9,3.42.89,1.18,1.99,1.84,3.3,1.97,1.31.14,2.63-.3,3.97-1.31,1.07-.81,1.82-1.79,2.24-2.93.32-.86.4-1.79.25-2.77.29.35.57.68.84.95.43.44.8.73,1.11.89l4.07-3.07c-.52-.36-1.11-.86-1.77-1.51-.65-.64-1.35-1.46-2.09-2.44l-3.05-4.05c-.98-1.3-1.99-2.18-3.03-2.62-1.03-.44-2.12-.49-3.27-.16-1.15.33-2.39,1-3.71,2-2.25,1.7-3.6,3.43-4.03,5.19ZM84.92,55.29h0c.42.55.67,1.13.76,1.74.09.6.03,1.17-.18,1.69-.21.52-.56.96-1.04,1.33-.5.38-1,.55-1.49.51-.49-.04-.91-.29-1.26-.75-.35-.46-.46-.92-.34-1.37.13-.45.4-.89.81-1.35l1.17-1.3c.31-.37.52-.66.63-.87.11-.21.18-.4.22-.57l.71.94Z"/>
      <path d="M89.57,44.63c.56.11,1.11,0,1.63-.29l.61-.35,3.45,6.07c.9,1.58,1.99,2.58,3.29,3,1.29.42,2.71.2,4.25-.68.58-.33,1.12-.71,1.59-1.14.48-.43.9-.86,1.27-1.3l-2.01-3.53c-.24.26-.48.51-.74.73-.26.22-.53.42-.83.58-.56.32-1.09.42-1.56.31-.48-.12-.92-.53-1.33-1.25l-3-5.29,4.12-2.34-2.2-3.88-4.12,2.34-1.56-2.74-3.77,5.46c-.42.57-.68,1.12-.76,1.65-.09.53.02,1.05.32,1.58.34.6.8.96,1.36,1.06Z"/>
      <path d="M114.41,34.21v.03c.15.35.14.66-.03.92-.17.26-.59.6-1.24,1.01l-2.98,1.78c-1.52.9-2.55,1.89-3.08,2.96-.53,1.07-.54,2.25-.02,3.54.55,1.37,1.44,2.29,2.67,2.76,1.23.47,2.62.39,4.18-.23,1.25-.5,2.22-1.25,2.93-2.25.53-.75.85-1.62.97-2.6.19.42.37.81.56,1.14.3.53.58.91.84,1.15l4.73-1.91c-.41-.49-.85-1.12-1.31-1.91-.46-.79-.92-1.76-1.38-2.9l-1.89-4.7c-.61-1.52-1.36-2.62-2.24-3.32-.88-.69-1.92-1.03-3.12-1.01-1.2.02-2.56.34-4.1.96-2.62,1.05-4.36,2.37-5.25,3.96-.33.5-.52.96-.56,1.4s.02.86.18,1.25c.23.56.58.93,1.06,1.11.48.18,1.02.15,1.63-.09.44-.18.78-.41,1.04-.71.25-.3.51-.63.77-1.01.26-.38.59-.76,1-1.12.41-.37.97-.7,1.7-.99.71-.28,1.31-.38,1.82-.3s.89.45,1.15,1.09ZM112.86,43c-.46-.16-.8-.51-1.02-1.05-.22-.54-.21-1.01.03-1.41.24-.4.62-.76,1.14-1.09l1.46-.95c.39-.28.67-.51.83-.68.16-.17.28-.34.36-.49l-.33-.81.77,1.9h0c.26.64.35,1.27.28,1.88-.07.61-.27,1.14-.61,1.59-.34.45-.79.79-1.35,1.01-.58.23-1.1.27-1.57.11Z"/>
      <path d="M128.46,40.26c.93.76,2.22.91,3.87.47,1.06-.29,1.97-.76,2.74-1.44l-1.04-3.86c-.18.1-.37.19-.56.29-.19.1-.39.17-.58.23-.5.13-.88.09-1.16-.12-.28-.21-.51-.68-.71-1.39l-4.74-17.54-4.86,1.31,4.99,18.48c.44,1.62,1.12,2.81,2.06,3.57Z"/>
      <path d="M134.66,17.79c.14.77.49,1.35,1.06,1.74.57.39,1.34.49,2.31.32.95-.17,1.63-.54,2.04-1.1.41-.56.55-1.23.41-2-.14-.75-.49-1.31-1.07-1.7-.58-.38-1.34-.49-2.29-.32-.97.18-1.65.54-2.05,1.1-.4.56-.53,1.22-.4,1.97Z"/>
      <path d="M138.89,38.79l4.96-.89-3-16.62c-1.58.69-3.23.99-4.96.89l3,16.62Z"/>
      <path d="M147.63,22.69c-.18.4-.25.82-.22,1.24.04.6.26,1.07.66,1.39.4.32.93.46,1.57.42.47-.03.87-.14,1.21-.35.34-.2.68-.44,1.05-.72.36-.28.8-.53,1.3-.75.5-.22,1.14-.36,1.93-.41.76-.05,1.37.05,1.82.29.45.24.7.71.74,1.4v.04c.03.38-.08.67-.33.86-.25.2-.74.38-1.49.57l-3.38.75c-1.73.38-3.01.99-3.85,1.84-.84.85-1.22,1.97-1.13,3.35.09,1.47.65,2.63,1.67,3.46,1.02.83,2.36,1.2,4.04,1.09,1.34-.08,2.5-.49,3.49-1.21.74-.55,1.32-1.27,1.74-2.17.05.45.1.88.18,1.26.12.6.26,1.05.44,1.35l5.09-.32c-.24-.59-.45-1.33-.65-2.23-.19-.9-.32-1.96-.4-3.19l-.32-5.06c-.1-1.63-.47-2.91-1.08-3.85-.62-.94-1.5-1.58-2.64-1.93-1.14-.35-2.54-.48-4.2-.37-2.81.18-4.89.88-6.22,2.11-.47.37-.79.75-.97,1.15ZM154.97,33.44c-.63.04-1.13-.09-1.52-.39-.39-.3-.6-.74-.64-1.32-.04-.58.12-1.02.47-1.32.35-.3.82-.53,1.42-.68l1.69-.44c.46-.14.8-.27,1-.38.21-.11.37-.23.5-.35l.07,1.18h0c.04.69-.06,1.31-.32,1.87-.26.55-.62.99-1.08,1.31-.46.32-.99.5-1.6.54Z"/>
      <path d="M183.45,37.78h0s5.01.95,5.01.95c2,.38,3.75.48,5.26.3,1.5-.18,2.72-.66,3.66-1.44.93-.78,1.54-1.92,1.83-3.41.22-1.17.15-2.16-.2-2.99-.36-.83-.91-1.52-1.67-2.08-.39-.29-.82-.54-1.29-.78.52-.1,1.02-.24,1.47-.45.66-.31,1.22-.77,1.68-1.39.46-.62.78-1.42.97-2.41.41-2.18-.11-3.9-1.57-5.17-1.46-1.27-3.7-2.19-6.74-2.76l-4.16-.79h0s-5.38-1.02-5.38-1.02l-4.25,22.43,5.38,1.02ZM193.08,30.72c.52.46.7,1.1.54,1.91-.15.81-.56,1.36-1.22,1.65-.66.29-1.61.31-2.87.07l-5.24-.99.89-4.68,5.24.99c1.25.24,2.14.59,2.65,1.05ZM191.38,20.63c1.23.23,2.11.58,2.62,1.03.52.45.7,1.07.55,1.86-.15.81-.56,1.36-1.22,1.65-.66.29-1.6.31-2.83.08l-4.52-.86.87-4.62,4.52.86Z"/>
      <path d="M203.37,33.89c-.94,2.51-.94,4.74,0,6.67.95,1.93,2.81,3.42,5.6,4.47,1.3.49,2.54.79,3.73.9,1.19.11,2.24.09,3.16-.07l1.23-3.27c-1.02.1-2.03.08-3.05-.05-1.02-.13-2.01-.38-3-.75-1.09-.41-1.9-.9-2.42-1.47-.53-.57-.82-1.26-.87-2.07-.03-.48.02-1.01.15-1.58.58.37,1.17.73,1.77,1.05,1.1.58,2.18,1.03,3.24,1.34,1.06.32,2.07.46,3.01.43.94-.03,1.77-.27,2.48-.72.71-.45,1.24-1.15,1.59-2.09.37-.98.44-2,.21-3.04-.23-1.04-.77-2.02-1.63-2.92-.86-.91-2.05-1.65-3.58-2.22-1.7-.64-3.31-.84-4.84-.62-1.53.23-2.88.85-4.05,1.87-1.17,1.02-2.08,2.4-2.74,4.14ZM211.65,31.75c.66-.15,1.33-.09,2,.16.75.28,1.27.68,1.54,1.19.27.51.32,1.02.13,1.52-.17.46-.49.76-.95.9-.46.14-1.03.13-1.72-.04-.69-.16-1.46-.47-2.31-.91-.41-.21-.85-.46-1.29-.73.23-.37.47-.7.73-.97.59-.6,1.21-.98,1.88-1.12Z"/>
      <path d="M228.72,31.87c.22.65.77,1.2,1.65,1.65.86.44,1.62.55,2.29.35s1.18-.65,1.53-1.35c.34-.68.4-1.35.17-2-.23-.66-.77-1.2-1.63-1.64-.88-.45-1.65-.57-2.3-.36-.66.21-1.16.65-1.5,1.33-.36.7-.42,1.37-.2,2.03Z"/>
      <path d="M219.61,49.14l4.49,2.28,7.65-15.05c-1.68-.4-3.17-1.16-4.49-2.28l-7.65,15.05Z"/>
      <path d="M241.22,47.09l-9.57,2.63c-.68.14-1.23.33-1.63.56-.41.23-.74.54-1,.93-.41.62-.51,1.25-.31,1.88.2.64.73,1.24,1.59,1.81l10.1,6.64,2.34-3.56-7.21-4.74,12.02-3.07,1.84-2.81-12.24-8.04-2.34,3.56,6.41,4.21Z"/>
      <path d="M251.22,55.13c.05.51.32.98.81,1.42.35.31.71.52,1.09.62.38.1.79.18,1.25.24.46.06.94.19,1.45.39.51.2,1.06.56,1.64,1.08.57.51.93,1,1.07,1.5.15.49-.01,1-.47,1.51l-.33.37.3-.34c-.25.28-.54.41-.85.37-.31-.04-.8-.26-1.45-.67l-2.91-1.88c-1.48-.96-2.82-1.44-4.02-1.45-1.2,0-2.26.51-3.18,1.55-.98,1.1-1.41,2.31-1.29,3.62.12,1.31.81,2.52,2.06,3.64,1,.89,2.11,1.44,3.32,1.63.91.15,1.83.05,2.76-.29-.29.35-.56.69-.77,1.01-.34.5-.56.92-.65,1.26l3.81,3.4c.25-.59.63-1.26,1.13-2.03.5-.77,1.16-1.61,1.98-2.53l3.37-3.78c1.09-1.22,1.75-2.38,1.98-3.48.23-1.1.07-2.18-.48-3.24-.55-1.06-1.45-2.14-2.68-3.25-2.11-1.88-4.06-2.86-5.88-2.94-.59-.08-1.09-.04-1.5.12-.41.16-.76.4-1.04.71-.4.45-.58.93-.52,1.44ZM255.05,65.27c-.46.52-.98.88-1.55,1.08-.57.21-1.14.26-1.69.16-.55-.1-1.06-.36-1.51-.76-.47-.42-.73-.87-.79-1.36-.06-.49.1-.95.49-1.38.39-.43.81-.63,1.27-.6.46.04.96.22,1.48.53l1.5.89c.43.23.75.38.98.44.23.07.43.1.6.11l-.79.88Z"/>
      <path d="M268.52,81.96c-.91,1.73-1.25,3.6-1.04,5.63.21,2.02,1.06,4.11,2.53,6.28.93,1.37,1.9,2.47,2.9,3.3,1,.83,1.99,1.5,2.95,2.01l3.8-2.59c-1.03-.68-1.97-1.4-2.83-2.15-.86-.76-1.61-1.61-2.25-2.55-.9-1.31-1.41-2.57-1.56-3.77-.14-1.2.07-2.32.64-3.36.57-1.04,1.44-1.96,2.62-2.77,1.09-.74,2.19-1.23,3.28-1.45,1.1-.22,2.14-.14,3.12.25.98.39,1.83,1.1,2.53,2.13.52.76.82,1.44.92,2.06s.11,1.19.06,1.73c-.05.54-.08,1.06-.08,1.56,0,.5.16.98.48,1.44.42.61.93.98,1.54,1.1.61.12,1.24-.04,1.89-.48.39-.27.7-.59.93-.96.23-.38.4-.8.51-1.28.27-1.08.22-2.29-.13-3.65-.36-1.36-1.01-2.73-1.95-4.11-1.44-2.11-3.1-3.58-4.97-4.43-1.88-.85-3.82-1.13-5.83-.84-2.01.29-3.96,1.08-5.85,2.36-1.9,1.3-3.31,2.81-4.22,4.54Z"/>
      <path d="M287.06,98.53c-.15.49-.09,1.03.18,1.62.2.43.45.76.76,1,.31.24.66.48,1.05.71.39.24.79.55,1.18.93.39.39.75.93,1.08,1.64.32.69.45,1.29.39,1.8-.06.51-.4.91-1.03,1.2l-1.45.68,1.42-.66c-.34.16-.65.16-.92,0-.27-.16-.63-.55-1.07-1.19l-1.94-2.88c-.98-1.47-2.02-2.44-3.12-2.91-1.1-.48-2.28-.42-3.53.17-1.34.62-2.21,1.56-2.61,2.81-.41,1.25-.25,2.64.46,4.16.57,1.22,1.37,2.15,2.4,2.81.78.49,1.66.77,2.65.82-.41.21-.78.42-1.11.62-.51.33-.88.63-1.1.9l2.16,4.62c.46-.44,1.08-.91,1.84-1.42.76-.51,1.7-1.02,2.82-1.54l4.59-2.15c1.48-.69,2.54-1.5,3.19-2.42.65-.92.92-1.98.84-3.17-.09-1.19-.48-2.54-1.18-4.04-1.19-2.56-2.61-4.23-4.24-5.03-.51-.3-.99-.46-1.43-.48-.44-.02-.85.06-1.24.24-.55.26-.9.63-1.05,1.12ZM284.72,109.74c-.61-.04-1.15-.21-1.62-.52-.47-.31-.83-.74-1.08-1.29-.27-.57-.33-1.09-.19-1.56.14-.47.47-.83,1-1.08.53-.25,1-.26,1.41-.04s.79.57,1.15,1.07l1.03,1.41c.3.38.54.64.72.79.18.15.35.26.51.34l-1.07.5h0c-.63.29-1.25.42-1.86.39Z"/>
      <path d="M285.16,125.71c.34,1.04.87,1.93,1.58,2.66l3.8-1.25c-.11-.18-.21-.36-.32-.55-.11-.19-.19-.38-.26-.57-.16-.49-.14-.88.06-1.17.2-.29.65-.55,1.35-.78l17.25-5.67-1.57-4.78-18.18,5.98c-1.59.52-2.74,1.27-3.45,2.25-.7.97-.79,2.27-.26,3.89Z"/>
      <polygon points="289.25 140.3 289.25 140.3 289.48 141.45 307.25 144.63 306.13 139.1 293.52 137.92 304.64 131.73 303.5 126.11 288.37 135.95 289.25 140.3"/>
      <path d="M291.75,153.32c-.64,1.37-.92,2.95-.84,4.74.09,1.86.53,3.44,1.33,4.74.8,1.31,1.89,2.29,3.26,2.96,1.38.66,2.95.96,4.71.88,1.79-.08,3.31-.53,4.58-1.34,1.26-.81,2.22-1.89,2.86-3.26.64-1.36.92-2.94.84-4.73-.09-1.88-.53-3.47-1.33-4.78-.8-1.31-1.88-2.29-3.25-2.96-1.36-.67-2.94-.96-4.73-.87-1.79.08-3.32.53-4.58,1.34-1.26.81-2.21,1.9-2.86,3.27ZM299.47,154.01c.94-.04,1.75.08,2.42.38.67.29,1.21.71,1.6,1.25.39.54.61,1.17.64,1.89.03.69-.11,1.32-.43,1.89-.32.56-.8,1.02-1.43,1.36-.63.34-1.41.54-2.33.58-.94.04-1.75-.08-2.44-.37s-1.22-.72-1.6-1.27c-.38-.55-.59-1.19-.63-1.9-.03-.67.11-1.29.44-1.85.32-.56.8-1.02,1.43-1.36.63-.34,1.41-.54,2.33-.58Z"/>
      <path d="M32.36,180.28l-.31-2.59h0s-.37-3.06-.37-3.06l-12.75,1.55.37,3.06,4.31-.52.32,2.62c.14,1.15.44,2.11.89,2.87.45.76,1.03,1.31,1.74,1.65.71.34,1.5.46,2.37.35,1.27-.15,2.22-.73,2.83-1.72.62-.99.81-2.4.59-4.21ZM28.45,183c-.54.07-.97-.08-1.3-.43-.33-.35-.54-.96-.65-1.8l-.29-2.36,3.21-.39.29,2.36c.11.89.06,1.53-.16,1.93-.21.4-.58.63-1.1.7Z"/>
      <path d="M34.51,196.89c.26-.51.42-1.11.47-1.81.05-.7-.02-1.47-.21-2.31-.25-1.11-.63-2.01-1.14-2.72-.51-.7-1.11-1.19-1.81-1.46-.69-.27-1.43-.32-2.22-.14-.66.15-1.18.4-1.56.75-.38.36-.66.77-.84,1.25-.18.48-.3.99-.35,1.53-.05.54-.09,1.07-.1,1.6-.01.53-.04,1.01-.07,1.47s-.12.83-.26,1.12c-.14.3-.37.48-.69.55-.36.08-.69-.01-.99-.28s-.53-.75-.69-1.43c-.16-.74-.19-1.57-.08-2.5.11-.93.35-1.88.72-2.87l-2.84.63c-.22.65-.34,1.42-.39,2.28-.04.87.04,1.8.27,2.8.26,1.18.65,2.12,1.15,2.83s1.1,1.19,1.79,1.45c.69.26,1.43.3,2.21.13.66-.15,1.18-.4,1.55-.75.37-.35.65-.77.83-1.25.18-.48.31-.99.37-1.53.06-.54.09-1.08.11-1.6.01-.53.04-1.01.08-1.46.04-.45.13-.82.27-1.12.14-.3.37-.49.69-.56.36-.08.69,0,1,.25.31.25.54.66.67,1.25.1.47.12.88.03,1.24-.08.36-.19.69-.33.98-.14.3-.26.59-.35.88-.09.29-.1.6-.03.92.09.39.27.67.55.85s.6.21.97.13c.28-.06.52-.19.71-.37.19-.18.36-.42.5-.71Z"/>
      <rect x="24.38" y="202.28" width="12.84" height="3.08" transform="translate(-57.42 17.52) rotate(-16.75)"/>
      <path d="M37.04,211.67c.49.34.86.84,1.11,1.49.19.48.26.9.24,1.24-.03.35-.09.67-.19.95-.1.29-.18.57-.24.84-.06.27-.04.56.08.85.15.39.38.65.7.8.32.15.68.14,1.1-.02.25-.09.46-.23.63-.41.18-.18.32-.39.44-.64.29-.55.42-1.23.4-2.02-.02-.79-.2-1.62-.54-2.5-.51-1.34-1.23-2.36-2.15-3.07-.92-.71-1.95-1.11-3.09-1.21-1.14-.1-2.31.08-3.51.54-1.21.47-2.18,1.11-2.89,1.94-.72.83-1.15,1.81-1.29,2.95-.14,1.13.05,2.39.58,3.76.33.87.72,1.6,1.16,2.18s.89,1.08,1.36,1.48l2.42-.93c-.48-.5-.9-1.02-1.27-1.54-.37-.53-.67-1.09-.9-1.69-.32-.83-.44-1.59-.37-2.27.08-.68.34-1.26.78-1.76.44-.49,1.04-.89,1.79-1.18.69-.27,1.35-.39,1.98-.37.63.02,1.19.2,1.67.54Z"/>
      <path d="M49.83,223.94c-.18-.36-.42-.6-.7-.74-.28-.13-.61-.19-1-.18l-1.88.03.96,1.88,1.39.48c.38.17.7.21.96.1.25-.1.41-.29.47-.58.06-.29,0-.62-.2-1Z"/>
      <path d="M46.07,230.91c.63-.9.97-1.92,1.02-3.04.05-1.12-.25-2.31-.89-3.56-.64-1.26-1.46-2.2-2.44-2.82-.99-.63-2.05-.95-3.2-.96-1.15-.01-2.31.28-3.48.88-1.12.57-2,1.31-2.64,2.22-.64.91-.98,1.93-1.02,3.06-.04,1.13.25,2.31.88,3.55.65,1.27,1.46,2.21,2.44,2.83.98.62,2.05.94,3.2.95,1.16,0,2.32-.29,3.48-.88,1.13-.58,2.01-1.32,2.65-2.23ZM39.84,230.88c-.66.03-1.25-.12-1.78-.43-.53-.31-.95-.78-1.28-1.42-.32-.62-.45-1.22-.41-1.82.04-.59.26-1.15.65-1.66.39-.51.93-.94,1.61-1.29.71-.36,1.39-.56,2.05-.58.66-.03,1.25.12,1.78.43.53.31.95.78,1.28,1.42.32.62.45,1.22.41,1.82-.04.59-.25,1.15-.64,1.65-.38.51-.92.94-1.62,1.3-.71.36-1.39.56-2.05.58Z"/>
      <polygon points="43.67 240.64 52.13 235.13 50.45 232.55 39.69 239.55 40.31 240.5 40.31 240.5 45.01 247.72 47.3 246.23 43.67 240.64"/>
      <path d="M62.24,253.6c.44-1.01.56-2.07.38-3.18-.18-1.11-.71-2.21-1.6-3.31-.89-1.1-1.87-1.85-2.97-2.27-1.09-.41-2.2-.51-3.33-.29-1.12.22-2.2.74-3.23,1.57-.98.79-1.69,1.69-2.13,2.71-.44,1.02-.57,2.09-.38,3.2s.72,2.21,1.59,3.29c.89,1.11,1.88,1.87,2.97,2.28,1.08.41,2.19.5,3.33.28s2.21-.75,3.23-1.57c.99-.8,1.7-1.7,2.14-2.72ZM56.13,254.83c-.64.16-1.25.14-1.83-.06-.58-.2-1.09-.57-1.54-1.13-.43-.54-.69-1.1-.77-1.69-.08-.59.02-1.18.3-1.75.28-.58.71-1.11,1.31-1.59.62-.5,1.25-.83,1.89-.99.64-.16,1.25-.14,1.83.06.58.2,1.09.57,1.54,1.13.43.54.69,1.1.77,1.69.08.59-.02,1.17-.29,1.75-.27.58-.71,1.11-1.32,1.6-.62.5-1.25.83-1.89.99Z"/>
      <path d="M66.94,262.45l-1.68,1.71,2.18,2.15c-.53.52-1.1.77-1.71.74-.61-.03-1.23-.35-1.87-.98-.56-.56-.93-1.14-1.1-1.74-.17-.6-.14-1.21.08-1.82.22-.61.63-1.21,1.21-1.8s1.18-1,1.79-1.24c.61-.24,1.22-.28,1.83-.15.61.14,1.19.49,1.76,1.04.4.4.68.78.84,1.14.15.36.26.71.31,1.03.06.32.12.62.19.9.07.28.22.53.45.76.3.29.61.44.95.45.33.01.65-.13.94-.43.19-.19.32-.4.4-.65.08-.25.13-.51.14-.78.01-.45-.07-.91-.25-1.39-.18-.48-.43-.96-.75-1.44-.32-.48-.72-.95-1.19-1.4-1.08-1.07-2.21-1.75-3.37-2.05-1.16-.3-2.3-.27-3.4.08-1.1.35-2.1.99-3.01,1.9-.91.92-1.52,1.92-1.82,2.98-.31,1.06-.29,2.14.05,3.24s1.04,2.17,2.11,3.22c1.5,1.49,3.04,2.16,4.61,2.02,1.57-.14,3.18-1.16,4.82-3.06l-4.5-4.44Z"/>
      <path d="M82.41,268.83c-.09-.52-.36-.95-.79-1.29-.45-.36-.94-.53-1.47-.5-.53.02-1.09.22-1.71.59l-10.22,5.97,2.59,2.05,2.11-1.31,3.99,3.17-.79,2.36,2.6,2.07,3.5-11.3c.22-.68.28-1.28.18-1.8ZM75.29,272.86l4.03-2.5-1.51,4.5-2.51-2Z"/>
      <rect x="85.26" y="281.09" width="12.84" height="3.08" transform="translate(-197.5 214.4) rotate(-58.75)"/>
      <path d="M106.95,283.59l-3.45,6.89-1.07-7.74c-.08-.62-.24-1.11-.45-1.46-.22-.35-.52-.63-.9-.82-.52-.26-1.02-.3-1.51-.12-.49.18-.9.59-1.22,1.25l-4.83,9.64,2.62,1.31,3.59-7.17,1.39,9.66,2.7,1.35,5.75-11.48-2.62-1.31Z"/>
      <path d="M116.98,295.99c.41.16.78.18,1.11.07.33-.11.56-.37.72-.77.15-.4.14-.75-.02-1.06s-.46-.54-.87-.69l-4.17-1.58.84-2.21,6.13,2.33.94-2.47-6.13-2.33h0s-1.69-.64-1.69-.64l-.23-.09h0l-.95-.36-4.56,12,2.88,1.09,1.85-4.87,4.17,1.58Z"/>
      <path d="M129.74,292.25c-.29-.44-.7-.73-1.23-.88-.56-.16-1.07-.12-1.55.11-.48.23-.92.63-1.35,1.2l-7.09,9.47,3.18.89,1.44-2.03,4.91,1.37.19,2.48,3.2.89-1.17-11.78c-.06-.71-.24-1.29-.53-1.73ZM124.75,298.73l2.74-3.87.35,4.73-3.09-.86Z"/>
      <path d="M140.84,295.7c-.26-.57-.55-.99-.87-1.26-.31-.27-.68-.45-1.1-.52-.57-.09-1.06.02-1.48.33-.42.31-.68.83-.8,1.55l-1.74,10.64,2.89.47,1.3-7.91,4.2,8.81,2.98.49,2.08-12.67-2.89-.47-1.25,7.6-3.32-7.07Z"/>
      <polygon points="154.59 298.87 154 308.96 157.07 309.13 157.66 299.05 161.98 299.3 162.13 296.56 157.82 296.31 157.82 296.31 154.74 296.14 154.74 296.14 150.43 295.89 150.27 298.62 154.59 298.87"/>
      <path d="M176.55,305.77c.49-1.05.7-2.23.63-3.54-.06-1.27-.37-2.38-.94-3.33-.56-.95-1.34-1.68-2.35-2.18-1-.51-2.21-.73-3.61-.66-1.41.07-2.6.42-3.58,1.06-.98.64-1.71,1.48-2.2,2.52-.49,1.04-.7,2.22-.63,3.54.06,1.26.37,2.36.94,3.32.56.96,1.35,1.69,2.36,2.19s2.21.73,3.6.66c1.42-.07,2.62-.42,3.59-1.05.97-.63,1.7-1.47,2.19-2.53ZM170.7,306.59c-.69.03-1.3-.09-1.82-.38-.52-.28-.94-.71-1.24-1.27-.3-.56-.47-1.23-.51-2-.04-.79.07-1.49.31-2.1.25-.61.62-1.09,1.12-1.44.5-.35,1.11-.54,1.82-.58.69-.03,1.3.09,1.82.38.52.28.94.71,1.24,1.26.3.56.47,1.23.51,2.01.04.79-.07,1.49-.31,2.1-.25.61-.62,1.09-1.12,1.44-.5.35-1.11.55-1.82.58Z"/>
      <rect x="180.67" y="301.84" width="5.91" height="2.61" transform="translate(-40.88 28.89) rotate(-8.1)"/>
      <path d="M196.84,303.86c.24-.7.25-1.53.05-2.49l-1.26-5.93h0s-.57-2.68-.57-2.68l-3.01.64h0s-4.3.92-4.3.92l.57,2.68,4.3-.92,1.19,5.6c.1.47.12.85.05,1.14-.07.29-.2.52-.39.67-.19.16-.44.27-.75.33-.32.07-.61.09-.87.05-.26-.04-.5-.07-.71-.12-.22-.04-.43-.04-.64,0-.36.08-.62.25-.8.52-.17.27-.22.58-.15.94.16.73.73,1.16,1.73,1.31.31.05.65.07,1.03.07.38,0,.78-.05,1.2-.14.82-.18,1.53-.48,2.11-.9.58-.43.99-.99,1.22-1.69Z"/>
      <path d="M211.35,295.79l-2.26-7.19-2.95.93,2.25,7.13c.17.53.22,1.02.17,1.48-.05.46-.23.86-.53,1.2s-.75.6-1.34.79c-.84.26-1.55.23-2.13-.09-.58-.33-1-.92-1.27-1.77l-2.25-7.13-2.94.92,2.26,7.19c.38,1.21.91,2.14,1.6,2.77.68.64,1.49,1.01,2.42,1.13.93.12,1.98,0,3.13-.37,1.78-.56,3-1.43,3.66-2.62.66-1.19.72-2.64.18-4.37Z"/>
      <polygon points="223.1 282.63 220.06 283.96 220.87 293.92 214.04 286.6 210.96 287.95 220.64 297.72 221.62 297.3 223.72 296.38 223.1 282.63"/>
      <path d="M238.49,285.67l-5.81,3.27-1.35-2.4,3.88-2.19c.38-.22.64-.49.75-.82.12-.33.08-.67-.13-1.03-.22-.38-.49-.61-.83-.67-.34-.06-.7.01-1.08.23l-3.88,2.19-1.07-1.89,5.81-3.27-1.3-2.3-5.81,3.27h0s-.36.2-.36.2l-.2.11h0s-2.12,1.2-2.12,1.2l6.3,11.19,2.31-1.3,6.18-3.48-1.3-2.3Z"/>
      <path d="M242.88,270.35l4.45,6.29-7.33-2.7c-.59-.22-1.09-.31-1.5-.29-.41.02-.8.16-1.15.41-.47.33-.75.76-.82,1.28-.08.52.1,1.07.52,1.67l6.23,8.8,2.39-1.69-4.63-6.55,9.18,3.33,2.47-1.75-7.42-10.48-2.39,1.69Z"/>
      <rect x="251.67" y="263.92" width="3.08" height="12.84" transform="translate(-114.48 225.62) rotate(-39.94)"/>
      <polygon points="252.93 262.17 261.86 271.4 264.07 269.26 264.07 269.26 268.87 264.63 266.96 262.66 262.17 267.29 255.15 260.03 252.93 262.17"/>
      <path d="M99.78,177.73l1.02.37,1.8-5.03,3.57,1.28c.59.21.99.48,1.21.82.22.34.32.72.31,1.14-.01.42-.08.87-.21,1.33-.13.47-.25.92-.37,1.37-.12.45-.17.88-.16,1.28l1.2.43c-.04-.45-.02-.9.07-1.35.09-.45.19-.89.32-1.32.12-.43.22-.85.28-1.24.06-.4.05-.78-.03-1.14-.09-.36-.3-.7-.63-1-.09-.08-.19-.16-.31-.24.15.02.3.03.44.04.69.03,1.26-.1,1.72-.4.46-.29.8-.75,1.03-1.38.34-.94.25-1.77-.27-2.5-.52-.73-1.48-1.34-2.89-1.84l-3.67-1.31h0l-.51-.18-3.89,10.89ZM107.53,169.24c1.08.39,1.81.83,2.18,1.32.38.5.44,1.09.19,1.78-.25.69-.68,1.12-1.29,1.29-.61.17-1.46.06-2.54-.33l-3.15-1.13,1.45-4.07,3.15,1.13Z"/>
      <path d="M121.4,174.19l.32-.9-6.63-2.37h0l-1.02-.37-3.89,10.89.48.17h0s7.17,2.56,7.17,2.56l.32-.9-6.63-2.37,1.64-4.59,5.44,1.94c.16.06.3.06.44.02.13-.04.22-.14.27-.27.05-.15.04-.28-.03-.39-.08-.11-.19-.2-.35-.25l-5.44-1.94,1.29-3.6,6.63,2.37Z"/>
      <path d="M127.95,176.28c.65.23,1.14.5,1.47.79.33.29.57.58.72.85.15.28.27.52.36.73.09.21.23.34.4.4.12.04.23.04.34-.01.11-.05.19-.15.24-.29.05-.14.06-.29.02-.44-.03-.16-.1-.32-.19-.5-.13-.28-.33-.56-.59-.84s-.6-.56-.99-.83c-.4-.27-.88-.5-1.44-.71-1.22-.43-2.34-.55-3.36-.36-1.02.2-1.9.65-2.64,1.36-.74.71-1.31,1.63-1.71,2.75-.4,1.11-.53,2.16-.4,3.13.13.98.52,1.84,1.16,2.58.64.74,1.54,1.32,2.69,1.73,1.65.59,3.07.55,4.26-.13,1.19-.68,2.08-1.99,2.68-3.94l-4.98-1.78-.32.9,3.92,1.4c-.49,1.31-1.18,2.19-2.07,2.66-.89.47-1.95.48-3.19.03-.96-.34-1.69-.83-2.19-1.46-.5-.63-.78-1.35-.86-2.17s.06-1.7.39-2.62c.33-.93.79-1.7,1.39-2.31.59-.61,1.3-1.01,2.12-1.18.82-.18,1.74-.08,2.77.29Z"/>
      <rect x="127.48" y="183.02" width="11.56" height="1.07" transform="translate(-84.43 247.29) rotate(-70.34)"/>
      <path d="M143.41,181.17c-.42-.38-1.01-.7-1.76-.97-.83-.3-1.58-.42-2.25-.36-.67.06-1.23.26-1.69.61-.46.35-.79.82-1,1.4-.2.55-.24,1.05-.12,1.49.12.44.34.84.66,1.2.32.36.7.7,1.13,1.02.43.32.86.62,1.3.92.44.29.83.6,1.17.9.34.31.59.64.73,1,.15.36.14.76-.01,1.2-.2.56-.61.95-1.25,1.19-.63.24-1.49.16-2.57-.22-.62-.22-1.2-.52-1.74-.9-.54-.38-1.05-.86-1.54-1.44l-.33.93c.36.48.82.91,1.39,1.31.57.4,1.21.72,1.93.98.86.31,1.64.45,2.33.43.69-.02,1.27-.2,1.74-.53.47-.34.82-.81,1.04-1.43.21-.58.25-1.09.14-1.54-.12-.45-.33-.86-.65-1.23-.32-.37-.7-.71-1.13-1.02-.43-.31-.87-.61-1.3-.9-.44-.29-.83-.59-1.17-.89-.34-.3-.59-.63-.74-.99-.15-.35-.15-.74,0-1.17.21-.6.64-1.01,1.27-1.24.64-.23,1.42-.18,2.35.15.59.21,1.02.44,1.29.71.27.26.47.52.58.78.11.26.21.48.28.67.08.19.2.32.37.38.12.04.23.03.33-.03.1-.06.18-.16.23-.3.05-.15.07-.3.04-.45-.03-.15-.08-.3-.15-.46-.19-.42-.49-.81-.91-1.19Z"/>
      <polygon points="145.74 182.89 149.94 184.39 146.37 194.38 147.39 194.75 150.96 184.76 155.16 186.26 155.48 185.36 151.28 183.86 151.28 183.86 150.26 183.49 150.26 183.49 146.07 182 145.74 182.89"/>
      <path d="M161.04,187.35l-3.15-1.13h0l-1.02-.37-3.89,10.89,1.02.37,1.8-5.03,3.57,1.28c.59.21.99.48,1.21.82.22.34.32.72.31,1.14-.01.42-.08.87-.21,1.33-.13.47-.25.92-.37,1.37-.12.45-.17.88-.16,1.28l1.2.43c-.04-.45-.02-.9.07-1.35.09-.45.19-.89.32-1.32.12-.43.22-.85.28-1.24.06-.4.05-.78-.03-1.14-.09-.36-.3-.7-.63-1-.09-.08-.19-.16-.31-.24.15.02.3.03.44.04.69.03,1.26-.1,1.72-.4.46-.29.8-.75,1.03-1.38.34-.94.25-1.77-.27-2.5-.52-.73-1.48-1.34-2.89-1.84ZM162.9,189.56c.38.5.44,1.09.19,1.78-.25.69-.68,1.12-1.29,1.29-.61.17-1.46.06-2.54-.33l-3.15-1.13,1.45-4.07,3.15,1.13c1.08.39,1.81.83,2.18,1.32Z"/>
      <path d="M164.49,194.9c-.39,1.1-.52,2.14-.39,3.11.13.97.52,1.83,1.15,2.57.63.74,1.49,1.3,2.57,1.68,1.12.4,2.17.5,3.15.29.98-.21,1.84-.67,2.58-1.39.74-.72,1.31-1.63,1.72-2.75.39-1.1.52-2.14.39-3.11-.13-.97-.51-1.83-1.14-2.57-.63-.74-1.48-1.31-2.57-1.7-1.11-.4-2.16-.49-3.14-.28-.98.21-1.85.67-2.59,1.39-.74.72-1.32,1.64-1.72,2.77ZM169.09,191.69c.78-.19,1.62-.12,2.52.2.85.31,1.53.77,2.02,1.38.49.61.78,1.33.88,2.16.1.82-.02,1.7-.35,2.63-.34.95-.81,1.73-1.41,2.35-.6.62-1.29,1.02-2.08,1.21-.79.19-1.63.12-2.53-.2-.85-.31-1.53-.76-2.02-1.37-.49-.61-.79-1.33-.88-2.15-.1-.82.02-1.7.35-2.63.34-.96.82-1.75,1.42-2.36.6-.61,1.3-1.02,2.08-1.21Z"/>
      <path d="M180.78,197.6c-.2.56-.24,1.05-.12,1.49.12.44.34.84.66,1.2.32.36.7.7,1.13,1.02.43.32.86.62,1.3.92.44.29.83.6,1.17.9.34.31.59.64.73,1,.15.36.14.76-.01,1.2-.2.56-.61.95-1.25,1.19-.63.24-1.49.16-2.57-.22-.62-.22-1.2-.52-1.74-.9-.54-.38-1.05-.86-1.54-1.44l-.33.93c.36.48.82.91,1.39,1.31.57.4,1.21.72,1.93.98.86.31,1.64.45,2.33.43.69-.02,1.27-.2,1.74-.53.47-.34.82-.81,1.04-1.43.21-.58.25-1.09.14-1.54-.12-.45-.33-.86-.65-1.23-.32-.37-.7-.71-1.13-1.02-.43-.31-.87-.61-1.3-.9-.44-.29-.83-.58-1.17-.89-.34-.3-.59-.63-.74-.99-.15-.35-.15-.74,0-1.17.21-.6.64-1.01,1.27-1.24.64-.23,1.42-.18,2.35.15.59.21,1.02.44,1.29.71.27.26.47.52.58.78.11.26.21.48.28.67.08.19.2.32.37.38.12.04.23.03.33-.03.1-.06.18-.16.23-.3.05-.15.07-.3.04-.45-.03-.15-.08-.3-.15-.46-.19-.42-.49-.81-.91-1.19-.42-.38-1.01-.7-1.76-.97-.83-.3-1.58-.42-2.25-.36-.67.06-1.23.26-1.69.61-.46.35-.79.82-1,1.4Z"/>
      <path d="M187.93,209.45c.27.1.49.09.68-.02.19-.11.32-.26.39-.46.08-.21.07-.42,0-.62-.08-.2-.25-.34-.52-.44-.27-.1-.49-.09-.68,0s-.32.26-.39.47c-.07.2-.07.41,0,.61.08.2.25.35.52.45Z"/>
      <rect x="187.78" y="204.57" width="11.56" height="1.07" transform="translate(-64.71 318.37) rotate(-70.34)"/>
      <path d="M195.17,212.03c.27.1.49.09.68-.02.19-.11.32-.26.39-.46.08-.21.07-.42,0-.62-.08-.2-.25-.34-.52-.44s-.49-.09-.68,0-.32.26-.39.47c-.07.2-.07.41,0,.61.08.2.25.35.52.45Z"/>
      <path d="M200.77,204.74c-.2.56-.24,1.05-.12,1.49.12.44.34.84.66,1.2s.7.7,1.13,1.02c.43.32.86.62,1.3.92.44.29.83.6,1.17.9.34.31.59.64.73,1,.15.36.14.76-.01,1.2-.2.56-.61.95-1.25,1.19-.63.24-1.49.16-2.57-.22-.62-.22-1.2-.52-1.74-.9-.54-.38-1.05-.86-1.54-1.44l-.33.93c.36.48.82.91,1.39,1.31.57.4,1.21.72,1.93.98.86.31,1.64.45,2.33.43.69-.02,1.27-.2,1.74-.53.47-.34.82-.81,1.04-1.43.21-.58.25-1.09.14-1.54-.12-.45-.33-.86-.65-1.23-.32-.37-.7-.71-1.13-1.02-.43-.31-.87-.61-1.3-.9-.44-.29-.83-.59-1.17-.89-.34-.3-.59-.63-.74-.99-.15-.35-.15-.74,0-1.17.21-.6.64-1.01,1.27-1.24.64-.23,1.42-.18,2.35.15.59.21,1.02.44,1.29.71.27.26.47.52.58.78.11.26.21.48.28.67.08.19.2.32.37.38.12.04.23.03.33-.03.1-.06.18-.16.23-.3.05-.15.07-.3.04-.45-.03-.15-.08-.3-.15-.46-.19-.42-.49-.81-.91-1.19-.42-.38-1.01-.7-1.76-.97-.83-.3-1.58-.42-2.25-.36-.67.06-1.23.26-1.69.61-.46.35-.79.82-1,1.4Z"/>
      <path d="M99.84,182.47l-5,13.98-4.21-15.48c-.2-.8-.47-1.43-.8-1.86-.33-.44-.76-.75-1.29-.94-.71-.25-1.36-.22-1.94.09-.59.31-1.04.91-1.36,1.79l-6.28,17.58,3.48,1.24,5.16-14.44,4.93,18.04,3.63,1.3,7.17-20.06-3.48-1.24Z"/>
      <path d="M118.34,197.27c.56-1.57.73-3.04.51-4.39-.23-1.36-.79-2.54-1.69-3.56-.9-1.02-2.1-1.8-3.59-2.33-1.55-.56-3.02-.71-4.39-.46-1.38.25-2.58.85-3.62,1.8-1.04.95-1.84,2.21-2.4,3.78-.56,1.55-.72,3.01-.5,4.38.22,1.37.79,2.56,1.7,3.58.91,1.02,2.1,1.8,3.58,2.33,1.57.56,3.04.72,4.41.46,1.37-.25,2.57-.86,3.61-1.82,1.04-.96,1.84-2.21,2.39-3.77ZM111.25,199.59c-.75.18-1.51.13-2.28-.15-.75-.27-1.35-.69-1.81-1.28-.46-.58-.73-1.29-.82-2.12-.09-.83.04-1.74.39-2.72.36-1,.84-1.8,1.45-2.39.61-.59,1.29-.97,2.04-1.15.75-.18,1.51-.13,2.28.15.75.27,1.35.69,1.81,1.28.46.58.73,1.29.82,2.12.09.83-.04,1.74-.39,2.72-.35.98-.83,1.78-1.45,2.38-.61.6-1.3.99-2.05,1.16Z"/>
      <path d="M133.52,194.51l-4.98.62c-.63.09-1.13.23-1.51.44-.37.21-.64.53-.79.96-.15.41-.17.79-.07,1.14.1.35.29.63.58.85.29.22.64.37,1.06.44.42.07.87.04,1.36-.09l2.76-.66-5.81,16.26,3.69,1.32,7.17-20.06-3.45-1.23Z"/>
      <path d="M150.57,217c.44-1.24.48-2.39.12-3.45-.33-.96-.96-1.82-1.86-2.6.39-.04.76-.1,1.11-.2,1.67-.47,2.82-1.57,3.45-3.32.63-1.75.44-3.35-.57-4.79-1-1.44-2.67-2.59-5.01-3.42-2.44-.87-4.51-1.03-6.22-.47-1.71.55-2.87,1.7-3.49,3.43-.63,1.75-.42,3.31.62,4.68.21.28.46.55.73.81-.55.02-1.07.1-1.56.22-1.79.47-3.01,1.62-3.66,3.45-.65,1.83-.43,3.5.67,5.01,1.1,1.51,2.89,2.71,5.37,3.6,2.6.93,4.8,1.12,6.61.58,1.81-.54,3.04-1.71,3.69-3.52ZM141.75,203.6c.32-.9.94-1.48,1.85-1.72.91-.24,1.96-.15,3.16.28,1.18.42,2.03,1,2.55,1.74.52.74.63,1.54.32,2.41-.33.92-.95,1.51-1.86,1.76-.91.25-1.97.16-3.16-.27-1.18-.42-2.03-1.01-2.55-1.76-.52-.75-.62-1.57-.3-2.45ZM141.33,216.99c-1.3-.46-2.24-1.09-2.84-1.88-.59-.79-.72-1.67-.36-2.66.37-1.02,1.05-1.69,2.06-1.99s2.18-.22,3.52.26c1.3.46,2.23,1.12,2.79,1.96.56.84.67,1.77.31,2.77-.36,1-1.03,1.63-2,1.88-.98.25-2.13.14-3.47-.34Z"/>
      <path d="M162.11,204.72l-4.98.62c-.63.09-1.13.23-1.51.44-.37.21-.64.53-.79.96-.15.41-.17.79-.07,1.14.1.35.29.63.58.85.29.22.64.37,1.06.44.42.07.87.04,1.36-.09l2.76-.66-5.81,16.26,3.69,1.32,7.17-20.06-3.45-1.23Z"/>
      <path d="M171.42,224.27c.9-1.46,1.82-2.67,2.77-3.62.95-.95,1.88-1.71,2.79-2.28.91-.57,1.76-1.05,2.53-1.44s1.43-.78,1.98-1.16c.55-.38.92-.85,1.11-1.4.17-.47.19-.9.08-1.29-.12-.39-.34-.72-.67-1-.33-.28-.74-.51-1.23-.69l-13.1-4.68-1.19,3.33,11.42,4.08c-1.28.54-2.46,1.14-3.54,1.8-1.42.87-2.69,1.88-3.8,3.05-1.12,1.16-2.12,2.52-3,4.07-.89,1.55-1.69,3.34-2.42,5.39l3.83,1.37c.73-2.22,1.54-4.07,2.44-5.53Z"/>
      <path d="M192.22,215.08c-1.81-.65-3.49-.77-5.04-.37-1.55.4-2.93,1.27-4.12,2.6-1.2,1.34-2.18,3.06-2.93,5.19-.75,2.1-1.09,4.04-1.01,5.81.08,1.77.58,3.3,1.5,4.59.92,1.29,2.28,2.26,4.07,2.9,1.79.64,3.45.76,4.98.35,1.53-.41,2.89-1.27,4.07-2.6,1.18-1.33,2.16-3.06,2.92-5.21.76-2.12,1.11-4.07,1.05-5.83-.06-1.76-.55-3.28-1.46-4.56-.92-1.28-2.26-2.24-4.03-2.87ZM190.96,218.32c.98.35,1.69.94,2.12,1.75.43.82.62,1.82.56,2.99-.05,1.18-.34,2.47-.84,3.89-.53,1.47-1.15,2.68-1.88,3.62-.72.94-1.52,1.58-2.38,1.93-.87.34-1.77.35-2.71.01-.96-.34-1.66-.93-2.1-1.75-.44-.82-.63-1.82-.58-3,.06-1.18.34-2.47.84-3.89.53-1.47,1.15-2.68,1.86-3.63.71-.94,1.51-1.58,2.38-1.93.88-.34,1.79-.34,2.73,0Z"/>
      <path d="M211.12,225.99c-1.28.54-2.46,1.14-3.54,1.8-1.42.87-2.69,1.88-3.8,3.05-1.12,1.16-2.12,2.52-3,4.07-.89,1.55-1.69,3.34-2.42,5.39l3.83,1.37c.73-2.22,1.54-4.07,2.44-5.53.9-1.46,1.82-2.67,2.77-3.62.95-.95,1.88-1.71,2.79-2.28.91-.57,1.76-1.05,2.53-1.44.77-.39,1.43-.78,1.98-1.16.55-.38.92-.85,1.11-1.4.17-.47.19-.9.08-1.29-.12-.39-.34-.72-.67-1.01-.33-.28-.74-.51-1.23-.69l-13.1-4.68-1.19,3.33,11.42,4.08Z"/>
      <path d="M147.21,111.99c-.59,1.58-1.26,3.38-1.94,4.12-.76.84-2.47,1.69-4.12,2.52-3.19,1.59-7.17,3.6-8.64,7.71s.34,8.18,1.8,11.46c.76,1.69,1.54,3.43,1.59,4.56.05,1.01-.57,2.82-1.11,4.42-1.17,3.44-2.63,7.73-.68,11.83,1.95,4.11,6.18,5.68,9.59,6.97,1.58.59,3.38,1.26,4.12,1.94.84.76,1.69,2.47,2.52,4.12,1.6,3.17,3.6,7.16,7.71,8.63,4.11,1.47,8.18-.34,11.44-1.8,1.69-.76,3.43-1.54,4.56-1.59,1.01-.05,2.82.57,4.42,1.11,3.44,1.17,7.73,2.63,11.83.68,4.11-1.95,5.68-6.18,6.97-9.59.59-1.58,1.26-3.38,1.94-4.12.76-.84,2.47-1.69,4.12-2.52,3.19-1.59,7.17-3.58,8.64-7.71,1.47-4.13-.34-8.18-1.8-11.44-.76-1.69-1.54-3.43-1.59-4.56-.05-1.01.57-2.82,1.11-4.42,1.17-3.44,2.63-7.73.68-11.83-1.95-4.11-6.18-5.69-9.59-6.97-1.58-.59-3.38-1.26-4.12-1.94-.84-.76-1.69-2.47-2.52-4.12-1.59-3.19-3.58-7.17-7.71-8.64-4.13-1.47-8.18.34-11.44,1.8-1.69.76-3.43,1.54-4.56,1.59-1.01.05-2.82-.57-4.42-1.11-3.45-1.16-7.73-2.63-11.83-.67-4.1,1.96-5.68,6.18-6.97,9.58ZM163.21,111.37c2.46.83,4.99,1.7,7.66,1.58,2.75-.14,5.38-1.31,7.7-2.34,1.63-.77,4.1-1.88,4.93-1.58.82.29,2.03,2.72,2.84,4.32,1.12,2.26,2.41,4.83,4.47,6.69,1.98,1.8,4.49,2.74,6.92,3.63,1.83.68,4.33,1.62,4.76,2.53.43.91-.43,3.44-1.06,5.28-.83,2.46-1.7,4.99-1.58,7.66.14,2.75,1.31,5.38,2.34,7.7.73,1.64,1.84,4.11,1.55,4.93-.29.82-2.71,2.05-4.31,2.85-2.26,1.12-4.83,2.41-6.69,4.47-1.8,1.98-2.74,4.49-3.63,6.92-.68,1.83-1.62,4.33-2.53,4.76-.91.43-3.44-.43-5.28-1.06-2.46-.83-4.99-1.7-7.66-1.58-2.75.14-5.38,1.31-7.7,2.34-1.66.74-4.13,1.85-4.95,1.56s-2.03-2.72-2.84-4.32c-1.12-2.26-2.41-4.83-4.47-6.69-1.98-1.8-4.49-2.74-6.92-3.63-1.83-.68-4.33-1.62-4.76-2.53s.43-3.44,1.06-5.28c.83-2.46,1.7-4.99,1.58-7.66-.14-2.75-1.31-5.38-2.34-7.7-.74-1.66-1.85-4.13-1.56-4.95.29-.82,2.72-2.03,4.32-2.84,2.26-1.12,4.83-2.41,6.69-4.47,1.8-1.98,2.74-4.49,3.63-6.92.7-1.82,1.64-4.32,2.55-4.73.92-.41,3.44.43,5.28,1.06Z"/>
      <path d="M153.6,140.25l5.28,11.16s0,0,0,.01c1.04,2.18,3.64,3.1,5.82,2.07l26.03-12.33s0,0,.01,0c2.18-1.04,3.1-3.64,2.07-5.82,0,0,0,0,0,0-1.03-2.18-3.63-3.11-5.81-2.08l-22.09,10.46-3.42-7.2c-1.03-2.18-3.64-3.11-5.82-2.08-2.18,1.03-3.11,3.64-2.08,5.82Z"/>
    </g>
  </g>
</svg>