<?xml version="1.0" encoding="UTF-8"?>
<svg id="Capa_2" data-name="Capa 2" xmlns="http://www.w3.org/2000/svg" viewBox="0 0 204.9 176.01">
  <defs>
    <style>
      .cls-1 {
        fill: #00c2d1;
      }

      .cls-2 {
        fill: #fff;
      }
    </style>
  </defs>
  <g id="Capa_1-2" data-name="Capa 1">
    <g>
      <path class="cls-1" d="M202.49,38.63c-3.79-14.29-14.01-26.79-27.32-33.34-13.31-6.56-29.46-7.05-43.09-1.3-14.58,6.11-25.89,19.33-30,34.55-9.82-12.35-25.48-20-41.29-19.84-14.79.12-29.42,6.97-39.03,18.25-9.58,11.25-13.98,26.76-11.8,41.42,2.54,16.85,10.6,30.83,22.48,43.05,15.82,16.29,60.02,46.45,98.22,54.59,18.76-13.31,36.39-34.49,49.35-53.99-8.04,2.43-18.66-4.61-22.31-7.29-.43-.32-.87-.65-1.3-1-1.75,1.29-3.4,2.34-4.81,3.17-6.96,4.08-12.98,6.13-17.99,6.13-2.05,0-3.93-.34-5.63-1.03-.14-.05-.27-.12-.4-.18-1.84-.65-3.52-1.94-4.78-3.92-2.41-3.79-3.93-8.29-5.13-12.67-1.76-6.4-3.54-15.3-4.51-21.78-.24-1.56-.6-3.06-1.04-4.58-1.48,6.9-3.69,16.16-5.32,23.03-.99,4.13-2.21,8.23-3.69,12.2-.72,1.93-2.02,3.79-3.47,5.28-3.83,3.94-9.9,4.01-13.35-.24-2.23-2.77-4.05-6.2-4.99-9.62-2.22-8.12-3.81-18.75-5.68-26.97-.3-1.3-.56-2.53-1.33-3.95-1.12,5.05-2.63,12.47-3.82,17.5-1.28,5.38-2.5,10.79-4.13,16.07-.73,2.37-2.12,4.69-3.71,6.62-3.8,4.59-10.27,4.79-14.04.2-2.1-2.55-3.79-5.75-4.67-8.94-2.04-7.37-3.47-17.25-5.18-24.72-.49-2.15-1.09-4.28-2.17-6.53-.38,1.14-.84,2.26-1.11,3.42-.81,3.48-1.52,9.31-2.32,12.8-.79,3.45-3.75,5.48-6.96,4.84-3.32-.67-5.27-3.56-4.46-7.12,1.26-5.55,2.59-13.44,4.23-18.89.67-2.22,1.97-4.38,3.45-6.19,4-4.94,10.61-5.09,14.54-.08,2.05,2.6,3.63,5.83,4.5,9.03,2.01,7.39,3.43,17.26,5.14,24.74.46,2.05,1.07,4.08,2.24,6.17.8-3.27,1.62-6.54,2.39-9.82,1.53-6.55,2.86-15.48,4.62-21.96.73-2.65,2.05-5.29,3.66-7.53,4.09-5.7,11.59-5.84,15.51-.03,2.23,3.31,3.76,7.27,4.79,11.16,2.02,7.56,3.46,17.61,5.15,25.26.21.96.55,1.88.82,2.82.25,0,.5,0,.74,0,1.02-4.51,2.01-9.03,3.07-13.54,1.3-5.55,2.51-13.46,4.1-18.93.69-2.4,1.94-4.77,3.44-6.78,4.24-5.68,11.39-5.7,15.53.06,1.8,2.5,3.2,5.5,3.97,8.49,2.11,8.16,3.78,18.75,5.66,26.97.15.67.35,1.33.65,2,0,0,2.37,6.09,5.49,5.91,2.52-.47,6.12-1.83,10.5-4.4.63-.37,1.39-.84,2.22-1.4-4.57-5.46-7.25-10.47-7.99-16.46-.99-8.13.54-15.22,4.31-19.98,2.67-3.36,6.27-5.37,10.41-5.82.51-.06,1.02-.04,1.52.04,6.16,1.01,16.38,5.65,15.57,25.31-.26,6.34-2.7,11.58-7.25,17.1,1.96,1.44,4.22,2.88,6.8,4.3,0,0,.04.02.09.05.12.06.22.12.34.18.85.46,1.75.79,2.69.98,2.55.79,6.29,1.48,9.81.37,1.35-.42,2.44-1.3,3.32-2.36t.02.01s.03.03.05.05c5.12-8.71,9-16.57,11.26-22.54l-.06.02c6.03-15.92,7.86-31.93,3.48-48.41ZM153.26,76.34c-1.83,2.31-2.56,6.66-1.96,11.63.22,1.74,1.15,5.19,5.17,10.27,2.31-2.97,4.06-5.75,4.23-9.82.45-11-3.16-13.04-5.31-13.58-.82.23-1.51.72-2.13,1.5Z"/>
      <path class="cls-1" d="M8.48,105.36c-4.68,0-8.48,3.8-8.48,8.49s3.8,8.48,8.48,8.48,8.49-3.8,8.49-8.48-3.8-8.49-8.49-8.49Z"/>
      <path class="cls-2" d="M184.42,111.86c-3.52,1.11-7.26.42-9.81-.37-.94-.19-1.84-.52-2.69-.98-.12-.06-.22-.12-.34-.18-.05-.03-.09-.05-.09-.05-2.58-1.42-4.84-2.86-6.8-4.3,4.55-5.52,6.99-10.76,7.25-17.1.81-19.66-9.41-24.3-15.57-25.31-.5-.08-1.01-.1-1.52-.04-4.14.45-7.74,2.46-10.41,5.82-3.77,4.76-5.3,11.85-4.31,19.98.74,5.99,3.42,11,7.99,16.46-.83.56-1.59,1.03-2.22,1.4-4.38,2.57-7.98,3.93-10.5,4.4-3.12.18-5.49-5.91-5.49-5.91-.3-.67-.5-1.33-.65-2-1.88-8.22-3.55-18.81-5.66-26.97-.77-2.99-2.17-5.99-3.97-8.49-4.14-5.76-11.29-5.74-15.53-.06-1.5,2.01-2.75,4.38-3.44,6.78-1.59,5.47-2.8,13.38-4.1,18.93-1.06,4.51-2.05,9.03-3.07,13.54-.24,0-.49,0-.74,0-.27-.94-.61-1.86-.82-2.82-1.69-7.65-3.13-17.7-5.15-25.26-1.03-3.89-2.56-7.85-4.79-11.16-3.92-5.81-11.42-5.67-15.51.03-1.61,2.24-2.93,4.88-3.66,7.53-1.76,6.48-3.09,15.41-4.62,21.96-.77,3.28-1.59,6.55-2.39,9.82-1.17-2.09-1.78-4.12-2.24-6.17-1.71-7.48-3.13-17.35-5.14-24.74-.87-3.2-2.45-6.43-4.5-9.03-3.93-5.01-10.54-4.86-14.54.08-1.48,1.81-2.78,3.97-3.45,6.19-1.64,5.45-2.97,13.34-4.23,18.89-.81,3.56,1.14,6.45,4.46,7.12,3.21.64,6.17-1.39,6.96-4.84.8-3.49,1.51-9.32,2.32-12.8.27-1.16.73-2.28,1.11-3.42,1.08,2.25,1.68,4.38,2.17,6.53,1.71,7.47,3.14,17.35,5.18,24.72.88,3.19,2.57,6.39,4.67,8.94,3.77,4.59,10.24,4.39,14.04-.2,1.59-1.93,2.98-4.25,3.71-6.62,1.63-5.28,2.85-10.69,4.13-16.07,1.19-5.03,2.7-12.45,3.82-17.5.77,1.42,1.03,2.65,1.33,3.95,1.87,8.22,3.46,18.85,5.68,26.97.94,3.42,2.76,6.85,4.99,9.62,3.45,4.25,9.52,4.18,13.35.24,1.45-1.49,2.75-3.35,3.47-5.28,1.48-3.97,2.7-8.07,3.69-12.2,1.63-6.87,3.84-16.13,5.32-23.03.44,1.52.8,3.02,1.04,4.58.97,6.48,2.75,15.38,4.51,21.78,1.2,4.38,2.72,8.88,5.13,12.67,1.26,1.98,2.94,3.27,4.78,3.92.13.06.26.13.4.18,1.7.69,3.58,1.03,5.63,1.03,5.01,0,11.03-2.05,17.99-6.13,1.41-.83,3.06-1.88,4.81-3.17.43.35.87.68,1.3,1,3.65,2.68,14.27,9.72,22.31,7.29l7.73-12.52c-.88,1.06-1.97,1.94-3.32,2.36ZM160.7,88.42c-.17,4.07-1.92,6.85-4.23,9.82-4.02-5.08-4.95-8.53-5.17-10.27-.6-4.97.13-9.32,1.96-11.63.62-.78,1.31-1.27,2.13-1.5,2.15.54,5.76,2.58,5.31,13.58Z"/>
    </g>
  </g>
</svg>